<svg width="20" height="20" viewBox="0 0 20 20" fill="none" xmlns="http://www.w3.org/2000/svg">
<rect width="20" height="20" rx="2" fill="#1C1C1C"/>
<path d="M4.32306 6.86061V4.24243H3.03033V6.86061H4.32306ZM5.63215 10.7879V6.86061H4.32306V10.7879H5.63215ZM6.94124 13.4061V10.7879H5.63215V13.4061H6.94124ZM8.25033 16.0079V13.4061H6.94124V16.0079H8.25033ZM13.4867 16.0079V13.4061H12.1776V16.0079H13.4867ZM14.7958 13.4061V10.7879H13.4867V13.4061H14.7958ZM16.1049 10.7879V6.86061H14.7958V10.7879H16.1049ZM17.4303 6.86061V4.24243H16.1049V6.86061H17.4303ZM9.55943 13.4061V10.7879H8.25033V13.4061H9.55943ZM12.1776 13.4061V10.7879H10.8685V13.4061H12.1776ZM10.8685 10.7879V6.86061H9.55943V10.7879H10.8685Z" fill="#FFD200"/>
</svg>
