<svg width="20" height="20" viewBox="0 0 20 20" fill="none" xmlns="http://www.w3.org/2000/svg">
<rect width="20" height="20" rx="2" fill="#1C1C1C"/>
<path d="M6.74732 16.0079V13.4061H5.45459V16.0079H6.74732ZM8.05641 13.4061V12.097H6.74732V13.4061H8.05641ZM11.9837 12.097V10.7879H10.6746V12.097H11.9837ZM14.6019 16.0079V13.4061H13.2928V16.0079H14.6019ZM9.3655 12.097V10.7879H8.05641V12.097H9.3655ZM13.2928 13.4061V12.097H11.9837V13.4061H13.2928ZM10.6746 10.7879V9.4788H9.3655V10.7879H10.6746ZM14.6019 6.86061V4.24243H13.2928V6.86061H14.6019ZM13.2928 8.1697V6.86061H11.9837V8.1697H13.2928ZM11.9837 9.4788V8.1697H10.6746V9.4788H11.9837ZM8.05641 8.1697V6.86061H6.74732V8.1697H8.05641ZM9.3655 9.4788V8.1697H8.05641V9.4788H9.3655ZM6.74732 6.86061V4.24243H5.45459V6.86061H6.74732Z" fill="#FFD200"/>
</svg>
