<svg width="20" height="20" viewBox="0 0 20 20" fill="none" xmlns="http://www.w3.org/2000/svg">
<path d="M0 1.21212C0 0.542685 0.542685 0 1.21212 0H18.7879C19.4573 0 20 0.542685 20 1.21212V18.7879C20 19.4573 19.4573 20 18.7879 20H1.21212C0.542685 20 0 19.4573 0 18.7879V1.21212Z" fill="#1C1C1C"/>
<path d="M7.85635 6.00429V3.38611H6.54726V6.00429H7.85635ZM11.7836 15.1516V12.5497H10.4745V15.1516H11.7836ZM9.16544 8.62247V6.00429H7.85635V8.62247H9.16544ZM3.92908 15.1516V12.5497H2.63635V15.1516H3.92908ZM9.16544 8.62247V11.2407H5.23817V8.62247H3.92908V12.5497H10.4745V8.62247H9.16544ZM6.54726 8.62247V6.00429H5.23817V8.62247H6.54726Z" fill="#FFD200"/>
<path d="M17.6267 15.1315V15.4709H16.9521V15.8103H17.6267V18.1818H17.9703V15.1315H17.6267Z" fill="#FFD200"/>
</svg>
