<svg width="20" height="20" viewBox="0 0 20 20" fill="none" xmlns="http://www.w3.org/2000/svg">
<path d="M0 1.21212C0 0.542685 0.542685 0 1.21212 0H18.7879C19.4573 0 20 0.542685 20 1.21212V18.7879C20 19.4573 19.4573 20 18.7879 20H1.21212C0.542685 20 0 19.4573 0 18.7879V1.21212Z" fill="#1C1C1C"/>
<path d="M3.92908 8.62247V4.6952H7.85635V3.38611H2.63635V15.1516H7.85635V13.8588H3.92908V9.93156H7.85635V8.62247H3.92908ZM9.16544 13.8588V9.93156H7.85635V13.8588H9.16544ZM9.16544 8.62247V4.6952H7.85635V8.62247H9.16544Z" fill="#FFD200"/>
<path d="M17.626 16.8284V16.489H16.9473V16.8284H17.626ZM17.626 18.186V17.8466H16.6079V18.186H17.626ZM17.9654 17.8466V16.8284H17.626V17.8466H17.9654ZM16.6079 17.8466V17.5072H16.2727V17.8466H16.6079ZM16.6079 15.8103V15.4709H16.2727V15.8103H16.6079ZM17.9654 16.489V15.4709H17.626V16.489H17.9654ZM17.626 15.4709V15.1315H16.6079V15.4709H17.626Z" fill="#FFD200"/>
</svg>
