<svg width="20" height="20" viewBox="0 0 20 20" fill="none" xmlns="http://www.w3.org/2000/svg">
<path d="M0 1.21212C0 0.542685 0.542685 0 1.21212 0H18.7879C19.4573 0 20 0.542685 20 1.21212V18.7879C20 19.4573 19.4573 20 18.7879 20H1.21212C0.542685 20 0 19.4573 0 18.7879V1.21212Z" fill="#1C1C1C"/>
<path d="M10.4745 6.00429V4.6952H9.16544V6.00429H10.4745ZM9.16544 15.1516H10.4745V8.62247H6.54726V9.93156H9.16544V12.5497H7.85635V13.8588H9.16544V15.1516ZM7.85635 15.1679V13.8588H3.92908V15.1679H7.85635ZM9.16544 4.6952V3.38611H3.92908V4.6952H9.16544ZM3.92908 13.8588V4.6952H2.63635V13.8588H3.92908Z" fill="#FFD200"/>
<path d="M17.6267 15.1315V15.4709H16.9521V15.8103H17.6267V18.1818H17.9703V15.1315H17.6267Z" fill="#FFD200"/>
</svg>
