<svg width="20" height="20" viewBox="0 0 20 20" fill="none" xmlns="http://www.w3.org/2000/svg">
<path d="M0 1.21212C0 0.542685 0.542685 0 1.21212 0H18.7879C19.4573 0 20 0.542685 20 1.21212V18.7879C20 19.4573 19.4573 20 18.7879 20H1.21212C0.542685 20 0 19.4573 0 18.7879V1.21212Z" fill="#1C1C1C"/>
<path d="M6.54726 15.1679V13.8588H3.92908V15.1679H6.54726ZM7.85635 13.8588V3.38611H6.54726V13.8588H7.85635ZM3.92908 13.8588V11.2407H2.63635V13.8588H3.92908Z" fill="#FFD200"/>
<path d="M16.6079 17.8466V16.8284H16.2727V17.8466H16.6079ZM17.9655 17.8466V16.8284H17.6261V17.8466H17.9655ZM17.6261 18.186V17.8466H16.6079V18.186H17.6261ZM16.6079 16.489V15.4709H16.2727V16.489H16.6079ZM17.6261 16.8284V16.489H16.6079V16.8284H17.6261ZM17.9655 16.489V15.4709H17.6261V16.489H17.9655ZM17.6261 15.4709V15.1315H16.6079V15.4709H17.6261Z" fill="#FFD200"/>
</svg>
