<svg width="20" height="20" viewBox="0 0 20 20" fill="none" xmlns="http://www.w3.org/2000/svg">
<path d="M0 1.21212C0 0.542685 0.542685 0 1.21212 0H18.7879C19.4573 0 20 0.542685 20 1.21212V18.7879C20 19.4573 19.4573 20 18.7879 20H1.21212C0.542685 20 0 19.4573 0 18.7879V1.21212Z" fill="#1C1C1C"/>
<path d="M6.54726 7.31338V6.00429H5.23817V7.31338H6.54726ZM7.85635 6.00429V4.6952H6.54726V6.00429H7.85635ZM9.16544 4.6952V3.38611H7.85635V4.6952H9.16544ZM3.92908 7.31338V3.38611H2.63635V15.1516H3.92908V9.93156H5.23817V7.31338H3.92908ZM6.54726 11.2407V9.93156H5.23817V11.2407H6.54726ZM10.4745 15.1679V13.8588H9.16544V15.1679H10.4745ZM9.16544 13.8588V12.5497H7.85635V13.8588H9.16544ZM7.85635 12.5497V11.2407H6.54726V12.5497H7.85635Z" fill="#FFD200"/>
<path d="M17.6261 18.186V17.8466H16.6079V18.186H17.6261ZM17.9655 17.8466V16.489H17.6261V17.8466H17.9655ZM16.6079 17.8466V17.5072H16.2727V17.8466H16.6079ZM17.9655 15.4709V15.1315H16.2727V16.8284H16.6079V16.489H17.6261V16.1454H16.6079V15.4709H17.9655Z" fill="#FFD200"/>
</svg>
