<svg width="20" height="20" viewBox="0 0 20 20" fill="none" xmlns="http://www.w3.org/2000/svg">
<path d="M0 1.21212C0 0.542685 0.542685 0 1.21212 0H18.7879C19.4573 0 20 0.542685 20 1.21212V18.7879C20 19.4573 19.4573 20 18.7879 20H1.21212C0.542685 20 0 19.4573 0 18.7879V1.21212Z" fill="#1C1C1C"/>
<path d="M10.4745 15.1516V9.93156H9.16544V15.1516H10.4745ZM3.92908 8.62247V4.6952H9.16544V3.38611H2.63635V15.1516H3.92908V9.93156H9.16544V8.62247H3.92908ZM10.4745 8.62247V4.6952H9.16544V8.62247H10.4745Z" fill="#FFD200"/>
<path d="M17.6267 15.1315V15.4709H16.9521V15.8103H17.6267V18.1818H17.9703V15.1315H17.6267Z" fill="#FFD200"/>
</svg>
