<svg width="20" height="20" viewBox="0 0 20 20" fill="none" xmlns="http://www.w3.org/2000/svg">
<path d="M0 1.21212C0 0.542685 0.542685 0 1.21212 0H18.7879C19.4573 0 20 0.542685 20 1.21212V18.7879C20 19.4573 19.4573 20 18.7879 20H1.21212C0.542685 20 0 19.4573 0 18.7879V1.21212Z" fill="#1C1C1C"/>
<path d="M3.92908 6.00429V3.38611H2.63635V6.00429H3.92908ZM5.23817 9.93156V6.00429H3.92908V9.93156H5.23817ZM6.54726 12.5497V9.93156H5.23817V12.5497H6.54726ZM7.85635 15.1516V12.5497H6.54726V15.1516H7.85635ZM13.0927 15.1516V12.5497H11.7836V15.1516H13.0927ZM14.4018 12.5497V9.93156H13.0927V12.5497H14.4018ZM15.7109 9.93156V6.00429H14.4018V9.93156H15.7109ZM17.0364 6.00429V3.38611H15.7109V6.00429H17.0364ZM9.16544 12.5497V9.93156H7.85635V12.5497H9.16544ZM11.7836 12.5497V9.93156H10.4745V12.5497H11.7836ZM10.4745 9.93156V6.00429H9.16544V9.93156H10.4745Z" fill="#FFD200"/>
<path d="M16.9473 16.8284V16.1454H16.6079V16.8284H16.9473ZM17.626 17.1636V15.1315H17.2909V15.4709H16.9473V16.1454H17.2909V17.1636H16.6079V16.8284H16.2727V17.5072H17.2909V18.1818H17.626V17.5072H17.9654V17.1636H17.626Z" fill="#FFD200"/>
</svg>
