<svg width="20" height="20" viewBox="0 0 20 20" fill="none" xmlns="http://www.w3.org/2000/svg">
<path d="M0 1.21212C0 0.542685 0.542685 0 1.21212 0H18.7879C19.4573 0 20 0.542685 20 1.21212V18.7879C20 19.4573 19.4573 20 18.7879 20H1.21212C0.542685 20 0 19.4573 0 18.7879V1.21212Z" fill="#1C1C1C"/>
<path d="M9.16544 8.62247V7.31338H7.85635V8.62247H9.16544ZM10.4909 7.31338V6.00429H9.16544V7.31338H10.4909ZM2.63635 12.5497V15.1516H11.7836V13.8588H3.92908V12.5497H2.63635ZM11.7836 3.38611H2.63635V4.6952H10.4909V6.00429H11.7836V3.38611ZM7.85635 9.93156V8.62247H6.54726V9.93156H7.85635ZM5.23817 12.5497V11.2407H3.92908V12.5497H5.23817ZM6.54726 11.2407V9.93156H5.23817V11.2407H6.54726Z" fill="#FFD200"/>
<path d="M15.5055 15.1315V15.4709H14.831V15.8103H15.5055V18.1818H15.8492V15.1315H15.5055Z" fill="#FFD200"/>
<path d="M16.6079 17.8466V15.4709H16.2728V17.8466H16.6079ZM17.6261 18.186V17.8466H16.6079V18.186H17.6261ZM17.6261 15.4709V15.1315H16.6079V15.4709H17.6261ZM17.9655 17.8466V15.4709H17.6261V17.8466H17.9655Z" fill="#FFD200"/>
</svg>
