<svg width="200" height="200" viewBox="0 0 200 200" fill="none" xmlns="http://www.w3.org/2000/svg">
<g clip-path="url(#clip0_21_1000)">
<rect width="200" height="200" fill="white"/>
<path d="M43.4428 162.075C44.0119 166.71 48.2394 170.013 52.8744 169.444L162.075 156.036C166.71 155.467 170.013 151.239 169.444 146.604L156.036 37.4032C155.467 32.7683 151.239 29.4654 146.604 30.0345L37.4034 43.4427C32.7684 44.0118 29.4655 48.2393 30.0346 52.8742L43.4428 162.075Z" fill="#FFD200"/>
<path d="M73.3149 79.0943L70.1625 53.42L74.4416 52.8946L77.594 78.5689L73.3364 79.0917L73.8618 83.3708L52.4451 86.0004L51.9197 81.7213L47.6409 82.2467L44.4884 56.5724L53.0464 55.5216L56.1988 81.1959L60.4779 80.6705L57.3255 54.9962L65.8834 53.9454L69.0358 79.6197L73.3149 79.0943Z" fill="white"/>
<path d="M108.674 48.6914L109.199 52.9705L100.641 54.0213L103.794 79.6956L90.9565 81.2718L87.8041 55.5975L79.2459 56.6483L78.7205 52.3693L108.674 48.6914Z" fill="white"/>
<path d="M116.63 78.1195L112.953 48.1661L142.906 44.4883L143.431 48.7673L126.315 50.8689L127.366 59.4271L140.203 57.8509L140.729 62.1298L127.892 63.706L129.468 76.5432L116.63 78.1195Z" fill="white"/>
<path d="M56.1229 115.954L51.8441 116.479L50.7933 107.921L55.0936 107.393L56.1444 115.951L68.9602 114.377L67.9094 105.819L59.3512 106.87L58.8258 102.591L67.384 101.54L66.3332 92.9821L53.5174 94.5557L54.0428 98.8348L49.7425 99.3628L49.2171 95.0837L53.4959 94.5583L52.9705 90.2793L74.3657 87.6523L74.8912 91.9313L79.1702 91.4059L80.2211 99.9641L75.942 100.49L76.4673 104.768L80.7464 104.243L81.7972 112.801L77.5182 113.327L78.0436 117.606L56.6484 120.233L56.1229 115.954Z" fill="white"/>
<path fill-rule="evenodd" clip-rule="evenodd" d="M56.5727 154.99L52.8949 125.037L78.569 121.884L79.0944 126.164L83.3735 125.638L84.4242 134.196L80.1451 134.722L80.6705 139.001L84.9496 138.475L86.0005 147.033L81.7214 147.559L82.2467 151.838L56.5727 154.99ZM67.8547 140.574L68.9055 149.132L77.4422 148.084L76.3914 139.526L67.8547 140.574ZM67.3081 136.298L66.2574 127.74L74.8153 126.689L75.8661 135.247L67.3081 136.298Z" fill="white"/>
<path d="M154.99 142.906L125.037 146.584L121.359 116.631L151.312 112.953L151.838 117.232L134.722 119.333L135.773 127.891L148.61 126.315L149.135 130.594L136.298 132.17L137.349 140.729L154.465 138.627L154.99 142.906Z" fill="white"/>
<path fill-rule="evenodd" clip-rule="evenodd" d="M120.834 112.352L117.156 82.3983L142.83 79.2459L143.356 83.525L147.635 82.9996L148.686 91.5577L144.406 92.0832L144.932 96.362L149.211 95.8366L150.262 104.395L145.983 104.92L146.508 109.199L120.834 112.352ZM132.116 97.9356L133.167 106.494L141.704 105.446L140.653 96.8874L132.116 97.9356ZM131.569 93.6593L130.519 85.1011L139.076 84.0504L140.127 92.6085L131.569 93.6593Z" fill="white"/>
<path fill-rule="evenodd" clip-rule="evenodd" d="M82.9237 86.6015L86.6015 116.555L95.1812 115.501L93.605 102.664L106.376 101.096L107.952 113.933L116.555 112.877L114.979 100.04L110.7 100.565L110.174 96.2863L114.453 95.7609L113.403 87.2027L109.123 87.7282L108.598 83.4491L82.9237 86.6015ZM93.0687 98.3866L92.0179 89.8284L104.8 88.259L105.85 96.8172L93.0687 98.3866Z" fill="white"/>
<path d="M120.758 147.109L90.8047 150.787L87.1269 120.834L99.9642 119.258L103.117 144.932L120.233 142.83L120.758 147.109Z" fill="white"/>
<rect x="-0.350877" y="-0.350877" width="200.702" height="200.702" stroke="black" stroke-width="0.701754"/>
</g>
<defs>
<clipPath id="clip0_21_1000">
<rect width="200" height="200" fill="white"/>
</clipPath>
</defs>
</svg>
