<svg width="100" height="20" viewBox="0 0 100 20" fill="none" xmlns="http://www.w3.org/2000/svg">
<path d="M5.00003 15.0001H3V11H5.01007V15.0001H11V11H7.00006V9H11V5.00005H5.01007V7.00008H3V5.00005H5.00003V3.00002H15.0001V5.00005H17.0001V9H15.0001V11H17.0001V15.0001H15.0001V17H5.00003V15.0001Z" fill="white"/>
<path fill-rule="evenodd" clip-rule="evenodd" d="M35.0002 17V3H47.0003V5.00003H49.0002V8.99997H47.0003V11H49.0002V15.0001H47.0003V17H35.0002ZM41.0101 11V15.0001H45.0002V11H41.0101ZM41.0002 9.00001V5.00006H45.0003V9.00001H41.0002Z" fill="white"/>
<path fill-rule="evenodd" clip-rule="evenodd" d="M19 3V17H23.01V11H28.9791V17H33V11H31.0001V8.99997H33V5.00003H31.0001V3H19ZM23.0051 9.00001V5.00006H28.9793V9.00001H23.0051Z" fill="white"/>
<path fill-rule="evenodd" clip-rule="evenodd" d="M51 17V3H63.0001V5.00003H65V8.99997H63.0001V11H65V15.0001H63.0001V17H51ZM57.0099 11V15.0001H60.9999V11H57.0099ZM56.9999 9.00001V5.00006H61V9.00001H56.9999Z" fill="white"/>
<path d="M97 17H83V3.00002H97V5.00005H89V9H94.9999V11H89V15.0001H97V17Z" fill="white"/>
<path d="M81 17H67V3.00002H73V15.0001H81V17Z" fill="white"/>
</svg>
