<svg width="20" height="20" viewBox="0 0 20 20" fill="none" xmlns="http://www.w3.org/2000/svg">
<path d="M0 1.21212C0 0.542685 0.542685 0 1.21212 0H18.7879C19.4573 0 20 0.542685 20 1.21212V18.7879C20 19.4573 19.4573 20 18.7879 20H1.21212C0.542685 20 0 19.4573 0 18.7879V1.21212Z" fill="#16E951"/>
<path d="M9.16544 4.69514V3.38605H2.63635V15.1515H3.92908V9.9315H7.85635V8.62241H3.92908V4.69514H9.16544Z" fill="black"/>
<path d="M16.9473 16.8285V16.1455H16.6079V16.8285H16.9473ZM17.626 17.1637V15.1315H17.2909V15.4709H16.9473V16.1455H17.2909V17.1637H16.6079V16.8285H16.2727V17.5073H17.2909V18.1818H17.626V17.5073H17.9654V17.1637H17.626Z" fill="black"/>
</svg>
