<svg width="20" height="20" viewBox="0 0 20 20" fill="none" xmlns="http://www.w3.org/2000/svg">
<path d="M0 1.21212C0 0.542685 0.542685 0 1.21212 0H18.7879C19.4573 0 20 0.542685 20 1.21212V18.7879C20 19.4573 19.4573 20 18.7879 20H1.21212C0.542685 20 0 19.4573 0 18.7879V1.21212Z" fill="#16E951"/>
<path d="M6.54726 7.31332V6.00423H5.23817V7.31332H6.54726ZM7.85635 6.00423V4.69514H6.54726V6.00423H7.85635ZM9.16544 4.69514V3.38605H7.85635V4.69514H9.16544ZM3.92908 7.31332V3.38605H2.63635V15.1515H3.92908V9.9315H5.23817V7.31332H3.92908ZM6.54726 11.2406V9.9315H5.23817V11.2406H6.54726ZM10.4745 15.1679V13.8588H9.16544V15.1679H10.4745ZM9.16544 13.8588V12.5497H7.85635V13.8588H9.16544ZM7.85635 12.5497V11.2406H6.54726V12.5497H7.85635Z" fill="black"/>
<path d="M17.6261 18.1861V17.8467H16.6079V18.1861H17.6261ZM17.9655 17.8467V16.4891H17.6261V17.8467H17.9655ZM16.6079 17.8467V17.5073H16.2727V17.8467H16.6079ZM17.9655 15.4709V15.1315H16.2727V16.8285H16.6079V16.4891H17.6261V16.1455H16.6079V15.4709H17.9655Z" fill="black"/>
</svg>
