<svg width="20" height="20" viewBox="0 0 20 20" fill="none" xmlns="http://www.w3.org/2000/svg">
<path d="M0 1.21212C0 0.542685 0.542685 0 1.21212 0H18.7879C19.4573 0 20 0.542685 20 1.21212V18.7879C20 19.4573 19.4573 20 18.7879 20H1.21212C0.542685 20 0 19.4573 0 18.7879V1.21212Z" fill="#16E951"/>
<path d="M7.85635 13.8588V11.2406H6.56363V13.8588H7.85635ZM3.92908 6.00423V3.38605H2.63635V15.1515H3.92908V8.62241H5.23817V6.00423H3.92908ZM9.16544 11.2406V8.62241H7.85635V11.2406H9.16544ZM10.4745 3.38605V6.00423H9.16544V8.62241H10.4745V15.1515H11.7836V3.38605H10.4745ZM6.54726 11.2406V8.62241H5.23817V11.2406H6.54726Z" fill="black"/>
<path d="M17.626 16.8285V16.4891H16.9473V16.8285H17.626ZM17.626 18.1861V17.8467H16.6079V18.1861H17.626ZM17.9654 17.8467V16.8285H17.626V17.8467H17.9654ZM16.6079 17.8467V17.5073H16.2727V17.8467H16.6079ZM16.6079 15.8103V15.4709H16.2727V15.8103H16.6079ZM17.9654 16.4891V15.4709H17.626V16.4891H17.9654ZM17.626 15.4709V15.1315H16.6079V15.4709H17.626Z" fill="black"/>
</svg>
