<svg width="20" height="20" viewBox="0 0 20 20" fill="none" xmlns="http://www.w3.org/2000/svg">
<path d="M0 1.21212C0 0.542685 0.542685 0 1.21212 0H18.7879C19.4573 0 20 0.542685 20 1.21212V18.7879C20 19.4573 19.4573 20 18.7879 20H1.21212C0.542685 20 0 19.4573 0 18.7879V1.21212Z" fill="#16E951"/>
<path d="M6.54726 9.9315V7.31332H5.23817V9.9315H6.54726ZM3.92908 4.69514V3.38605H2.63635V15.1515H3.92908V7.31332H5.23817V4.69514H3.92908ZM9.16544 3.38605V11.2406H7.85635V13.8588H9.16544V15.1515H10.4745V3.38605H9.16544ZM7.85635 11.2406V9.9315H6.54726V11.2406H7.85635Z" fill="black"/>
<path d="M17.6267 15.1315V15.4709H16.9521V15.8103H17.6267V18.1818H17.9703V15.1315H17.6267Z" fill="black"/>
</svg>
