<svg width="20" height="20" viewBox="0 0 20 20" fill="none" xmlns="http://www.w3.org/2000/svg">
<path d="M0 1.21212C0 0.542685 0.542685 0 1.21212 0H18.7879C19.4573 0 20 0.542685 20 1.21212V18.7879C20 19.4573 19.4573 20 18.7879 20H1.21212C0.542685 20 0 19.4573 0 18.7879V1.21212Z" fill="#16E951"/>
<path d="M10.4745 16.4606V15.1515H9.16544V16.4606H10.4745ZM3.92908 13.8588V4.69514H2.63635V13.8588H3.92908ZM10.4745 13.8588V4.69514H9.16544V12.5497H7.85635V13.8588H3.92908V15.1515H9.16544V13.8588H10.4745ZM7.85635 12.5497V11.2406H6.56363V12.5497H7.85635ZM9.16544 4.69514V3.38605H3.92908V4.69514H9.16544Z" fill="black"/>
<path d="M15.5055 15.1315V15.4709H14.831V15.8103H15.5055V18.1818H15.8492V15.1315H15.5055Z" fill="black"/>
<path d="M16.6079 17.8467V15.4709H16.2728V17.8467H16.6079ZM17.6261 18.1861V17.8467H16.6079V18.1861H17.6261ZM17.6261 15.4709V15.1315H16.6079V15.4709H17.6261ZM17.9655 17.8467V15.4709H17.6261V17.8467H17.9655Z" fill="black"/>
</svg>
