<svg width="20" height="20" viewBox="0 0 20 20" fill="none" xmlns="http://www.w3.org/2000/svg">
<path d="M0 1.21212C0 0.542685 0.542685 0 1.21212 0H18.7879C19.4573 0 20 0.542685 20 1.21212V18.7879C20 19.4573 19.4573 20 18.7879 20H1.21212C0.542685 20 0 19.4573 0 18.7879V1.21212Z" fill="#16E951"/>
<path d="M7.85635 15.1679V13.8588H3.92908V15.1679H7.85635ZM9.16544 13.8588V9.9315H7.85635V13.8588H9.16544ZM3.92908 13.8588V12.5497H2.63635V13.8588H3.92908ZM7.85635 4.69514V3.38605H3.92908V4.69514H7.85635ZM9.16544 6.00423V4.69514H7.85635V6.00423H9.16544ZM3.92908 8.62241V4.69514H2.63635V8.62241H3.92908ZM7.85635 9.9315V8.62241H3.92908V9.9315H7.85635Z" fill="black"/>
<path d="M17.6267 15.1315V15.4709H16.9521V15.8103H17.6267V18.1818H17.9703V15.1315H17.6267Z" fill="black"/>
</svg>
