<svg width="20" height="20" viewBox="0 0 20 20" fill="none" xmlns="http://www.w3.org/2000/svg">
<path d="M0 1.21212C0 0.542685 0.542685 0 1.21212 0H18.7879C19.4573 0 20 0.542685 20 1.21212V18.7879C20 19.4573 19.4573 20 18.7879 20H1.21212C0.542685 20 0 19.4573 0 18.7879V1.21212Z" fill="#16E951"/>
<path d="M3.92908 15.1515V12.5497H2.63635V15.1515H3.92908ZM5.23817 12.5497V11.2406H3.92908V12.5497H5.23817ZM9.16544 11.2406V9.9315H7.85635V11.2406H9.16544ZM11.7836 15.1515V12.5497H10.4745V15.1515H11.7836ZM6.54726 11.2406V9.9315H5.23817V11.2406H6.54726ZM10.4745 12.5497V11.2406H9.16544V12.5497H10.4745ZM7.85635 9.9315V8.62241H6.54726V9.9315H7.85635ZM11.7836 6.00423V3.38605H10.4745V6.00423H11.7836ZM10.4745 7.31332V6.00423H9.16544V7.31332H10.4745ZM9.16544 8.62241V7.31332H7.85635V8.62241H9.16544ZM5.23817 7.31332V6.00423H3.92908V7.31332H5.23817ZM6.54726 8.62241V7.31332H5.23817V8.62241H6.54726ZM3.92908 6.00423V3.38605H2.63635V6.00423H3.92908Z" fill="black"/>
<path d="M16.6079 17.8467V16.8285H16.2727V17.8467H16.6079ZM17.9654 17.8467V16.8285H17.626V17.8467H17.9654ZM17.626 18.1861V17.8467H16.6079V18.1861H17.626ZM16.6079 16.4891V15.4709H16.2727V16.4891H16.6079ZM17.626 16.8285V16.4891H16.6079V16.8285H17.626ZM17.9654 16.4891V15.4709H17.626V16.4891H17.9654ZM17.626 15.4709V15.1315H16.6079V15.4709H17.626Z" fill="black"/>
</svg>
